<?xml version="1.0" encoding="UTF-8"?><svg id="Layer_2" xmlns="http://www.w3.org/2000/svg" viewBox="0 0 255.71 46.68"><defs><style>.cls-1{fill:#30291d;}</style></defs><g id="Layer_1-2"><g id="_5mhOnI"><path class="cls-1" d="M47.07,46.65c-.17,0-.29,.02-.41,.02-1.6,0-3.21,0-4.81,0-.29,0-.43-.09-.55-.35-1.69-3.83-3.39-7.65-5.07-11.48-.13-.3-.27-.42-.62-.42-8.1,.01-16.21,.01-24.31,0-.35,0-.52,.11-.66,.43-1.7,3.82-3.42,7.64-5.13,11.46-.13,.29-.28,.37-.58,.37-1.49-.02-2.98,0-4.47,0-.13,0-.27,0-.46,0,.06-.16,.1-.28,.15-.38C4.96,35.62,9.77,24.95,14.58,14.27c.11-.25,.24-.34,.52-.34,1.57,.01,3.13,.01,4.7,0,.27,0,.39,.09,.5,.32,2.06,4.56,4.13,9.11,6.2,13.67,.04,.1,.08,.2,.12,.33-.13,0-.23,.02-.32,.02-1.6,0-3.21,0-4.81,0-.24,0-.34-.1-.43-.3-1.14-2.56-2.29-5.12-3.44-7.68-.06-.13-.13-.26-.22-.46-1.51,3.34-2.99,6.61-4.49,9.92h21.07c-3.5-7.85-6.98-15.67-10.49-23.55-.08,.15-.13,.24-.18,.34-.76,1.7-1.53,3.4-2.28,5.1-.11,.26-.25,.34-.53,.34-1.48-.01-2.96,0-4.44,0-.11,0-.22,0-.4,0,.06-.15,.09-.27,.14-.37,1.71-3.76,3.43-7.52,5.13-11.29,.11-.24,.23-.33,.5-.33,1.39,.01,2.78,.01,4.18,0,.28,0,.42,.08,.53,.34,3.88,8.59,7.76,17.17,11.65,25.76,3.04,6.72,6.08,13.44,9.12,20.16,.05,.12,.1,.24,.17,.41Z"/></g><g><path class="cls-1" d="M54.81,35.72l9.64-21.42h3.92l9.67,21.42h-4.19l-8.26-19.31h1.59l-8.29,19.31h-4.07Zm4.44-4.96l1.1-3.12h11.54l1.07,3.12h-13.71Z"/><path class="cls-1" d="M74,35.72l9.64-21.42h3.92l9.67,21.42h-4.19l-8.26-19.31h1.59l-8.29,19.31h-4.07Zm4.44-4.96l1.1-3.12h11.54l1.07,3.12h-13.71Z"/><path class="cls-1" d="M102.3,35.72l9.64-21.42h3.92l9.67,21.42h-4.19l-8.26-19.31h1.59l-8.29,19.31h-4.07Zm4.44-4.96l1.1-3.12h11.53l1.07,3.12h-13.71Z"/><path class="cls-1" d="M133.66,36.03c-1.67,0-3.27-.24-4.79-.72-1.52-.48-2.74-1.1-3.66-1.85l1.38-3.09c.86,.67,1.92,1.23,3.18,1.68,1.26,.45,2.56,.67,3.89,.67,1.12,0,2.03-.12,2.72-.37,.69-.24,1.2-.58,1.53-.99,.33-.42,.49-.89,.49-1.42,0-.65-.24-1.18-.7-1.58-.47-.4-1.08-.71-1.82-.95-.75-.23-1.57-.45-2.48-.64-.91-.19-1.82-.43-2.72-.72-.91-.29-1.74-.65-2.49-1.09-.75-.44-1.36-1.03-1.82-1.76-.46-.73-.69-1.67-.69-2.82s.31-2.23,.93-3.2c.62-.97,1.57-1.74,2.85-2.33,1.27-.58,2.89-.87,4.85-.87,1.29,0,2.56,.16,3.83,.49,1.26,.33,2.37,.8,3.3,1.41l-1.25,3.09c-.96-.57-1.95-.99-2.97-1.27-1.02-.28-2-.41-2.94-.41-1.08,0-1.97,.13-2.66,.4-.69,.27-1.2,.62-1.51,1.06-.32,.44-.47,.92-.47,1.45,0,.65,.23,1.18,.69,1.58,.46,.4,1.06,.71,1.81,.93,.74,.22,1.58,.44,2.49,.64,.92,.2,1.83,.44,2.72,.72s1.72,.63,2.48,1.07c.75,.44,1.36,1.02,1.82,1.74,.46,.72,.69,1.65,.69,2.77s-.31,2.2-.93,3.17c-.62,.97-1.58,1.74-2.86,2.33-1.29,.58-2.91,.87-4.87,.87Z"/><path class="cls-1" d="M151.68,36.03c-1.67,0-3.27-.24-4.79-.72-1.52-.48-2.74-1.1-3.66-1.85l1.38-3.09c.86,.67,1.92,1.23,3.18,1.68,1.26,.45,2.56,.67,3.89,.67,1.12,0,2.03-.12,2.72-.37,.69-.24,1.2-.58,1.53-.99,.33-.42,.49-.89,.49-1.42,0-.65-.24-1.18-.7-1.58-.47-.4-1.08-.71-1.82-.95-.75-.23-1.57-.45-2.48-.64-.91-.19-1.82-.43-2.72-.72-.91-.29-1.74-.65-2.49-1.09-.75-.44-1.36-1.03-1.82-1.76-.46-.73-.69-1.67-.69-2.82s.31-2.23,.93-3.2c.62-.97,1.57-1.74,2.85-2.33,1.27-.58,2.89-.87,4.85-.87,1.29,0,2.56,.16,3.83,.49,1.26,.33,2.37,.8,3.3,1.41l-1.25,3.09c-.96-.57-1.95-.99-2.97-1.27-1.02-.28-2-.41-2.94-.41-1.08,0-1.97,.13-2.66,.4-.69,.27-1.2,.62-1.51,1.06-.32,.44-.47,.92-.47,1.45,0,.65,.23,1.18,.69,1.58,.46,.4,1.06,.71,1.81,.93,.74,.22,1.58,.44,2.49,.64,.92,.2,1.83,.44,2.72,.72s1.72,.63,2.48,1.07c.75,.44,1.36,1.02,1.82,1.74,.46,.72,.69,1.65,.69,2.77s-.31,2.2-.93,3.17c-.62,.97-1.58,1.74-2.86,2.33-1.29,.58-2.91,.87-4.87,.87Z"/><path class="cls-1" d="M165.82,32.36h12.09v3.37h-16.06V14.3h15.64v3.37h-11.66v14.69Zm-.31-9.15h10.65v3.27h-10.65v-3.27Z"/><path class="cls-1" d="M179.28,35.72V14.3h3.27l9.36,15.64h-1.71l9.21-15.64h3.27l.06,21.42h-3.83v-15.51h.77l-7.77,13.1h-1.8l-7.96-13.1h.92v15.51h-3.79Z"/><path class="cls-1" d="M204.83,35.72V14.3h10.07c2.55,0,4.5,.5,5.84,1.51,1.35,1.01,2.02,2.36,2.02,4.05,0,1.14-.27,2.12-.8,2.92s-1.24,1.43-2.13,1.87c-.89,.44-1.85,.66-2.89,.66l.55-1.1c1.2,0,2.28,.22,3.24,.66,.96,.44,1.71,1.08,2.26,1.91,.55,.84,.83,1.88,.83,3.12,0,1.84-.7,3.26-2.1,4.28s-3.47,1.53-6.23,1.53h-10.68Zm3.98-3.12h6.46c1.47,0,2.6-.24,3.4-.73,.8-.49,1.19-1.27,1.19-2.36s-.4-1.84-1.19-2.34c-.79-.5-1.93-.75-3.4-.75h-6.76v-3.09h5.94c1.37,0,2.43-.24,3.18-.73,.75-.49,1.13-1.22,1.13-2.2s-.38-1.74-1.13-2.23c-.75-.49-1.82-.73-3.18-.73h-5.63v15.18Z"/><path class="cls-1" d="M225.67,35.72V14.3h3.98v18.05h11.2v3.37h-15.18Z"/><path class="cls-1" d="M243.35,35.72v-8.48l.92,2.42-9.33-15.36h4.22l7.53,12.39h-2.39l7.5-12.39h3.92l-9.3,15.36,.89-2.42v8.48h-3.95Z"/></g></g></svg>